<svg aria-hidden="true" style="position: absolute; width: 0; height: 0; overflow: hidden;" version="1.1" xmlns="http://www.w3.org/2000/svg" xmlns:xlink="http://www.w3.org/1999/xlink">
<defs>
<symbol id="icon-bookmark" viewBox="0 0 24 24">
<path d="M18.419 21.814c0.161 0.116 0.363 0.186 0.581 0.186 0.552 0 1-0.448 1-1v-16c0-0.828-0.337-1.58-0.879-2.121s-1.293-0.879-2.121-0.879h-10c-0.828 0-1.58 0.337-2.121 0.879s-0.879 1.293-0.879 2.121v16c-0.001 0.199 0.060 0.404 0.186 0.581 0.321 0.449 0.946 0.554 1.395 0.232l6.419-4.584zM18 19.057l-5.419-3.871c-0.355-0.254-0.819-0.242-1.162 0l-5.419 3.871v-14.057c0-0.276 0.111-0.525 0.293-0.707s0.431-0.293 0.707-0.293h10c0.276 0 0.525 0.111 0.707 0.293s0.293 0.431 0.293 0.707z"></path>
</symbol>
<symbol id="icon-camera" viewBox="0 0 24 24">
<path d="M24 19v-11c0-0.828-0.337-1.58-0.879-2.121s-1.293-0.879-2.121-0.879h-3.465l-1.703-2.555c-0.182-0.27-0.486-0.445-0.832-0.445h-6c-0.326 0.002-0.64 0.158-0.832 0.445l-1.703 2.555h-3.465c-0.828 0-1.58 0.337-2.121 0.879s-0.879 1.293-0.879 2.121v11c0 0.828 0.337 1.58 0.879 2.121s1.293 0.879 2.121 0.879h18c0.828 0 1.58-0.337 2.121-0.879s0.879-1.293 0.879-2.121zM22 19c0 0.276-0.111 0.525-0.293 0.707s-0.431 0.293-0.707 0.293h-18c-0.276 0-0.525-0.111-0.707-0.293s-0.293-0.431-0.293-0.707v-11c0-0.276 0.111-0.525 0.293-0.707s0.431-0.293 0.707-0.293h4c0.346 0 0.65-0.175 0.832-0.445l1.703-2.555h4.93l1.703 2.555c0.192 0.287 0.506 0.443 0.832 0.445h4c0.276 0 0.525 0.111 0.707 0.293s0.293 0.431 0.293 0.707zM17 13c0-1.38-0.561-2.632-1.464-3.536s-2.156-1.464-3.536-1.464-2.632 0.561-3.536 1.464-1.464 2.156-1.464 3.536 0.561 2.632 1.464 3.536 2.156 1.464 3.536 1.464 2.632-0.561 3.536-1.464 1.464-2.156 1.464-3.536zM15 13c0 0.829-0.335 1.577-0.879 2.121s-1.292 0.879-2.121 0.879-1.577-0.335-2.121-0.879-0.879-1.292-0.879-2.121 0.335-1.577 0.879-2.121 1.292-0.879 2.121-0.879 1.577 0.335 2.121 0.879 0.879 1.292 0.879 2.121z"></path>
</symbol>
<symbol id="icon-heart" viewBox="0 0 24 24">
<path d="M20.133 5.317c0.88 0.881 1.319 2.031 1.319 3.184s-0.44 2.303-1.319 3.182l-8.133 8.133-8.133-8.133c-0.879-0.879-1.318-2.029-1.318-3.183s0.439-2.304 1.318-3.183 2.029-1.318 3.183-1.318 2.304 0.439 3.183 1.318l1.060 1.060c0.391 0.391 1.024 0.391 1.414 0l1.062-1.062c0.879-0.879 2.029-1.318 3.182-1.317s2.303 0.44 3.182 1.319zM21.547 3.903c-1.269-1.269-2.934-1.904-4.596-1.905s-3.327 0.634-4.597 1.903l-0.354 0.355-0.353-0.353c-1.269-1.269-2.935-1.904-4.597-1.904s-3.328 0.635-4.597 1.904-1.904 2.935-1.904 4.597 0.635 3.328 1.904 4.597l8.84 8.84c0.391 0.391 1.024 0.391 1.414 0l8.84-8.84c1.269-1.269 1.904-2.934 1.905-4.596s-0.634-3.327-1.905-4.598z"></path>
</symbol>
<symbol id="icon-message-circle" viewBox="0 0 24 24">
<path d="M22 11.497v-0.497c0-0.017-0.001-0.038-0.002-0.058-0.136-2.338-1.113-4.461-2.642-6.051-1.602-1.667-3.814-2.752-6.301-2.889-0.016-0.001-0.036-0.002-0.055-0.002h-0.489c-1.405-0.016-2.882 0.31-4.264 1.008-1.223 0.621-2.291 1.488-3.139 2.535-1.322 1.634-2.107 3.705-2.108 5.946-0.014 1.275 0.253 2.61 0.824 3.877l-1.772 5.317c-0.066 0.196-0.072 0.418 0 0.632 0.175 0.524 0.741 0.807 1.265 0.632l5.314-1.771c1.16 0.527 2.484 0.826 3.876 0.823 1.372-0.009 2.714-0.308 3.941-0.866 1.912-0.871 3.54-2.373 4.541-4.375 0.644-1.249 1.015-2.715 1.011-4.261zM20 11.503c0.003 1.225-0.292 2.375-0.789 3.339-0.801 1.602-2.082 2.785-3.592 3.472-0.97 0.442-2.035 0.679-3.126 0.686-1.221 0.003-2.371-0.292-3.335-0.789-0.249-0.129-0.528-0.142-0.775-0.060l-3.803 1.268 1.268-3.803c0.088-0.263 0.060-0.537-0.056-0.767-0.552-1.094-0.804-2.254-0.792-3.338 0.001-1.789 0.619-3.42 1.663-4.709 0.671-0.829 1.518-1.517 2.49-2.010 1.092-0.552 2.252-0.804 3.336-0.792h0.456c1.962 0.107 3.704 0.961 4.969 2.277 1.202 1.251 1.972 2.916 2.086 4.753z"></path>
</symbol>
<symbol id="icon-plus-square" viewBox="0 0 24 24">
<path d="M5 2c-0.828 0-1.58 0.337-2.121 0.879s-0.879 1.293-0.879 2.121v14c0 0.828 0.337 1.58 0.879 2.121s1.293 0.879 2.121 0.879h14c0.828 0 1.58-0.337 2.121-0.879s0.879-1.293 0.879-2.121v-14c0-0.828-0.337-1.58-0.879-2.121s-1.293-0.879-2.121-0.879zM5 4h14c0.276 0 0.525 0.111 0.707 0.293s0.293 0.431 0.293 0.707v14c0 0.276-0.111 0.525-0.293 0.707s-0.431 0.293-0.707 0.293h-14c-0.276 0-0.525-0.111-0.707-0.293s-0.293-0.431-0.293-0.707v-14c0-0.276 0.111-0.525 0.293-0.707s0.431-0.293 0.707-0.293zM8 13h3v3c0 0.552 0.448 1 1 1s1-0.448 1-1v-3h3c0.552 0 1-0.448 1-1s-0.448-1-1-1h-3v-3c0-0.552-0.448-1-1-1s-1 0.448-1 1v3h-3c-0.552 0-1 0.448-1 1s0.448 1 1 1z"></path>
</symbol>
<symbol id="icon-search" viewBox="0 0 24 24">
<path d="M16.041 15.856c-0.034 0.026-0.067 0.055-0.099 0.087s-0.060 0.064-0.087 0.099c-1.258 1.213-2.969 1.958-4.855 1.958-1.933 0-3.682-0.782-4.95-2.050s-2.050-3.017-2.050-4.95 0.782-3.682 2.050-4.95 3.017-2.050 4.95-2.050 3.682 0.782 4.95 2.050 2.050 3.017 2.050 4.95c0 1.886-0.745 3.597-1.959 4.856zM21.707 20.293l-3.675-3.675c1.231-1.54 1.968-3.493 1.968-5.618 0-2.485-1.008-4.736-2.636-6.364s-3.879-2.636-6.364-2.636-4.736 1.008-6.364 2.636-2.636 3.879-2.636 6.364 1.008 4.736 2.636 6.364 3.879 2.636 6.364 2.636c2.125 0 4.078-0.737 5.618-1.968l3.675 3.675c0.391 0.391 1.024 0.391 1.414 0s0.391-1.024 0-1.414z"></path>
</symbol>
<symbol id="icon-send" viewBox="0 0 24 24">
<path d="M22.963 2.269c0.043-0.151 0.050-0.314 0.015-0.476-0.024-0.113-0.068-0.224-0.131-0.325-0.064-0.102-0.145-0.19-0.238-0.262-0.117-0.090-0.249-0.15-0.386-0.181s-0.282-0.034-0.426-0.004c-0.042 0.009-0.085 0.021-0.126 0.035l-0.021 0.007-19.98 6.993c-0.252 0.088-0.467 0.276-0.584 0.538-0.224 0.505 0.003 1.096 0.508 1.32l8.649 3.844 3.844 8.649c0.108 0.243 0.313 0.443 0.583 0.538 0.521 0.182 1.092-0.092 1.274-0.614l6.993-19.979c0.010-0.027 0.019-0.054 0.027-0.082zM10.779 11.807l-6.068-2.696 13.483-4.72zM19.609 5.806l-4.72 13.483-2.696-6.068z"></path>
</symbol>
<symbol id="icon-user" viewBox="0 0 24 24">
<path d="M21 21v-2c0-1.38-0.561-2.632-1.464-3.536s-2.156-1.464-3.536-1.464h-8c-1.38 0-2.632 0.561-3.536 1.464s-1.464 2.156-1.464 3.536v2c0 0.552 0.448 1 1 1s1-0.448 1-1v-2c0-0.829 0.335-1.577 0.879-2.121s1.292-0.879 2.121-0.879h8c0.829 0 1.577 0.335 2.121 0.879s0.879 1.292 0.879 2.121v2c0 0.552 0.448 1 1 1s1-0.448 1-1zM17 7c0-1.38-0.561-2.632-1.464-3.536s-2.156-1.464-3.536-1.464-2.632 0.561-3.536 1.464-1.464 2.156-1.464 3.536 0.561 2.632 1.464 3.536 2.156 1.464 3.536 1.464 2.632-0.561 3.536-1.464 1.464-2.156 1.464-3.536zM15 7c0 0.829-0.335 1.577-0.879 2.121s-1.292 0.879-2.121 0.879-1.577-0.335-2.121-0.879-0.879-1.292-0.879-2.121 0.335-1.577 0.879-2.121 1.292-0.879 2.121-0.879 1.577 0.335 2.121 0.879 0.879 1.292 0.879 2.121z"></path>
</symbol>
<symbol id="icon-bookmark1" viewBox="0 0 18 18">
<path d="M14 1h-10c-0.552 0-1 0.448-1 1v13.999c0 0.588 0.483 1.001 1.003 1.001 0.186 0 0.377-0.053 0.552-0.169l4.119-3.549c0.188-0.162 0.465-0.162 0.652 0l4.119 3.549c0.175 0.117 0.366 0.169 0.552 0.169 0.52 0 1.003-0.414 1.003-1.001v-13.999c0-0.552-0.448-1-1-1zM13 13.807l-3.674-3.166c-0.188-0.162-0.465-0.162-0.652 0l-3.674 3.166v-10.307c0-0.276 0.224-0.5 0.5-0.5h7c0.276 0 0.5 0.224 0.5 0.5v10.307z"></path>
</symbol>
<symbol id="icon-home" viewBox="0 0 20 20">
<path d="M18.672 11h-1.672v6c0 0.445-0.194 1-1 1h-4v-6h-4v6h-4c-0.806 0-1-0.555-1-1v-6h-1.672c-0.598 0-0.47-0.324-0.060-0.748l8.024-8.032c0.195-0.202 0.451-0.302 0.708-0.312 0.257 0.010 0.513 0.109 0.708 0.312l8.023 8.031c0.411 0.425 0.539 0.749-0.059 0.749z"></path>
</symbol>
<symbol id="icon-message" viewBox="0 0 20 20">
<path d="M18 6v7c0 1.1-0.9 2-2 2h-4v3l-4-3h-4c-1.101 0-2-0.9-2-2v-7c0-1.1 0.899-2 2-2h12c1.1 0 2 0.9 2 2z"></path>
</symbol>
<symbol id="icon-squared-plus" viewBox="0 0 20 20">
<path d="M16 2h-12c-1.1 0-2 0.9-2 2v12c0 1.1 0.9 2 2 2h12c1.1 0 2-0.9 2-2v-12c0-1.1-0.9-2-2-2zM15 11h-4v4h-2v-4h-4v-2h4v-4h2v4h4v2z"></path>
</symbol>
</defs>
</svg>
